<svg width="16" height="16" viewBox="0 0 16 16" fill="none" xmlns="http://www.w3.org/2000/svg">
<path d="M3.84192 11.3333H13.3333V3.33333H2.66659V12.2567L3.84192 11.3333ZM4.30325 12.6667L2.14214 14.3645C1.81408 14.6222 1.33325 14.3885 1.33325 13.9713V2.66667C1.33325 2.48986 1.40349 2.32029 1.52851 2.19526C1.65354 2.07024 1.82311 2 1.99992 2H13.9999C14.1767 2 14.3463 2.07024 14.4713 2.19526C14.5963 2.32029 14.6666 2.48986 14.6666 2.66667V12C14.6666 12.1768 14.5963 12.3464 14.4713 12.4714C14.3463 12.5964 14.1767 12.6667 13.9999 12.6667H4.30325ZM7.33325 10C7.33325 9.63181 7.63173 9.33333 7.99992 9.33333C8.36811 9.33333 8.66659 9.63181 8.66659 10C8.66659 10.3682 8.36811 10.6667 7.99992 10.6667C7.63173 10.6667 7.33325 10.3682 7.33325 10ZM5.71125 5.87533C5.79787 5.44186 6.0058 5.0419 6.31085 4.72198C6.6159 4.40207 7.00553 4.17536 7.43439 4.06824C7.86326 3.96112 8.31372 3.97798 8.73338 4.11688C9.15303 4.25577 9.52461 4.51098 9.80489 4.85281C10.0852 5.19464 10.2626 5.60904 10.3166 6.04777C10.3705 6.48651 10.2988 6.93155 10.1097 7.3311C9.92058 7.73065 9.62191 8.0683 9.24841 8.30473C8.87492 8.54117 8.44196 8.66668 7.99992 8.66667H7.33325V7.33333H7.99992C8.1893 7.33332 8.37479 7.27953 8.5348 7.17822C8.69481 7.07691 8.82276 6.93224 8.90377 6.76106C8.98477 6.58987 9.0155 6.3992 8.99237 6.21123C8.96925 6.02326 8.89322 5.84572 8.77314 5.69927C8.65306 5.55283 8.49386 5.44349 8.31407 5.38398C8.13427 5.32447 7.94128 5.31725 7.75754 5.36314C7.57379 5.40903 7.40686 5.50615 7.27616 5.64321C7.14546 5.78027 7.05637 5.95162 7.01925 6.13733L5.71125 5.87533Z" fill="#0B2572"/>
</svg>
