<svg width="16" height="16" viewBox="0 0 16 16" fill="none" xmlns="http://www.w3.org/2000/svg">
<g clip-path="url(#clip0_145_398)">
<path d="M12.0002 6.66666H11.1602C10.9107 5.70065 10.3954 4.82398 9.67259 4.13625C8.94981 3.44852 8.04863 2.97732 7.07144 2.77617C6.09424 2.57503 5.08022 2.65202 4.14459 2.99838C3.20896 3.34475 2.38925 3.94661 1.77859 4.73558C1.16793 5.52454 0.790815 6.46897 0.690093 7.46156C0.589371 8.45414 0.769082 9.45508 1.20881 10.3506C1.64853 11.2462 2.33063 12.0004 3.17761 12.5277C4.02459 13.055 5.00247 13.3341 6.00016 13.3333H12.0002C12.8842 13.3333 13.7321 12.9821 14.3572 12.357C14.9823 11.7319 15.3335 10.884 15.3335 9.99999C15.3335 9.11594 14.9823 8.26809 14.3572 7.64297C13.7321 7.01785 12.8842 6.66666 12.0002 6.66666Z" stroke="#0B2572" stroke-width="1.5" stroke-linecap="round" stroke-linejoin="round"/>
</g>
<defs>
<clipPath id="clip0_145_398">
<rect width="16" height="16" fill="white"/>
</clipPath>
</defs>
</svg>
