<svg width="16" height="16" viewBox="0 0 16 16" fill="none" xmlns="http://www.w3.org/2000/svg">
<path d="M10.6666 13.3333V2.66668H2.66659V12.6667C2.66659 12.8435 2.73682 13.0131 2.86185 13.1381C2.98687 13.2631 3.15644 13.3333 3.33325 13.3333H10.6666ZM12.6666 14.6667H3.33325C2.80282 14.6667 2.29411 14.456 1.91904 14.0809C1.54397 13.7058 1.33325 13.1971 1.33325 12.6667V2.00001C1.33325 1.8232 1.40349 1.65363 1.52851 1.52861C1.65354 1.40358 1.82311 1.33334 1.99992 1.33334H11.3333C11.5101 1.33334 11.6796 1.40358 11.8047 1.52861C11.9297 1.65363 11.9999 1.8232 11.9999 2.00001V6.66668H13.6666C14.2189 6.66668 14.6666 7.11439 14.6666 7.66668V12.6667C14.6666 13.1971 14.4559 13.7058 14.0808 14.0809C13.7057 14.456 13.197 14.6667 12.6666 14.6667ZM11.9999 8.00001V12.6667C11.9999 12.8435 12.0702 13.0131 12.1952 13.1381C12.3202 13.2631 12.4898 13.3333 12.6666 13.3333C12.8434 13.3333 13.013 13.2631 13.138 13.1381C13.263 13.0131 13.3333 12.8435 13.3333 12.6667V8.00001H11.9999ZM3.99992 4.00001H7.99992V8.00001H3.99992V4.00001ZM5.33325 5.33334V6.66668H6.66659V5.33334H5.33325ZM3.99992 8.66668H9.33325V10H3.99992V8.66668ZM3.99992 10.6667H9.33325V12H3.99992V10.6667Z" fill="#0B2572"/>
</svg>
