<svg width="247" height="149" viewBox="0 0 247 149" fill="none" xmlns="http://www.w3.org/2000/svg">
<path d="M113.188 31.073C106.777 28.7199 99.8598 27.4191 92.6304 27.4191C61.8837 27.4191 36.5736 50.6464 33.2616 80.5092C33.2366 80.5092 33.2165 80.5059 33.1915 80.5059C14.8622 80.5059 0 95.3681 0 113.697C0 132.027 14.8622 146.889 33.1915 146.889H92.1435V146.884H173.039C213.126 146.884 245.624 114.189 245.624 73.8603C245.624 33.5311 213.128 0.836548 173.04 0.836548C145.232 0.836548 126.821 13.3674 113.188 31.073Z" fill="url(#paint0_linear_206_2229)" fill-opacity="0.6"/>
<ellipse cx="169.408" cy="74.2188" rx="77.5923" ry="74.2188" fill="#0061FF"/>
<path d="M159.558 32.2768C163.328 32.266 166.887 33.3473 170.476 34.3014C184.22 37.9564 197.999 41.481 211.711 45.254C222.778 48.3008 229.632 55.6341 232.327 66.7976C233.351 71.036 233.204 75.327 232.117 79.5436C230.363 86.3416 228.51 93.1149 226.726 99.9052C223.667 111.55 213.339 119.696 202.027 120.706C198.686 121.004 195.426 120.732 192.218 119.888C177.069 115.903 161.927 111.891 146.792 107.85C135.792 104.913 127.497 95.4357 126.067 84.2271C125.59 80.4977 125.833 76.807 126.804 73.1629C128.519 66.7278 130.123 60.2618 131.925 53.8516C135.314 41.8022 143.321 34.8009 155.548 32.5825C156.86 32.3451 158.22 32.3715 159.557 32.2753L159.558 32.2768Z" fill="white"/>
<path d="M104.456 28.391C105.08 28.9728 105.924 28.6641 106.66 28.9524C109.742 30.1646 112.019 32.2449 113.623 35.0835C115.676 38.7181 116.736 42.6458 116.813 46.8166C116.832 47.8227 117.171 48.7686 117.11 49.7884C116.706 56.542 115.367 63.0508 112.328 69.1579C110.913 72.0013 109.346 74.7522 107.28 77.1618C104.505 80.3959 101.352 83.1755 97.156 84.4611C94.721 85.2071 92.2648 85.1655 89.8094 84.5435C88.6761 84.8094 88.2469 85.4932 88.2985 86.6765C88.4435 89.9995 87.7068 93.2854 87.8117 96.6177C87.881 98.8104 87.8906 98.944 89.9688 99.7936C91.0958 100.255 92.2418 100.67 93.3601 101.152C93.9764 101.419 94.5759 101.697 94.9468 102.298C102.694 105.414 110.444 108.525 118.186 111.655C118.672 111.851 119.083 111.912 119.612 111.769C123.196 110.799 126.639 111.346 129.954 112.885C132.607 114.118 134.992 115.701 136.538 118.287C137.645 120.139 137.636 121.855 136.414 123.237C135.49 124.281 134.187 124.675 132.853 124.851C128.202 125.465 124.165 123.915 120.436 121.275C119.191 120.393 118.144 119.311 117.452 117.986C116.989 117.098 116.314 116.659 115.487 116.326C111.068 114.549 106.644 112.784 102.22 111.021C101.298 110.653 100.439 110.107 99.4146 110.031C98.8004 109.525 98.038 109.323 97.3236 109.033C93.0576 107.299 88.7794 105.591 84.5098 103.867C82.0303 102.866 81.7846 102.468 81.8989 99.7363C82.1179 94.4609 82.3434 89.1873 82.5557 83.9118C82.6127 82.5017 82.5944 82.4964 81.2661 82.1121C80.68 81.9428 80.0798 81.8184 79.499 81.6292C77.745 81.0582 77.1424 79.9113 77.5788 78.0201C77.8341 76.518 78.6127 75.6778 80.1659 75.9705C85.988 77.0719 89.6448 73.6998 92.6032 69.6562C99.0313 60.8666 101.65 50.9953 99.7881 40.1185C99.4273 38.013 98.5413 36.1045 97.3968 34.3087C96.4606 32.8398 95.066 32.0008 93.5312 31.2764C91.6338 30.3796 91.2031 29.4388 91.7441 27.7961C92.4864 25.8629 93.4826 25.298 95.414 25.8285C98.4366 26.6578 101.445 27.5369 104.461 28.3944L104.456 28.391Z" fill="#E9EEF9"/>
<path d="M91.7387 27.7927C91.5901 29.4049 92.3353 30.3938 93.8347 30.9276C97.0923 32.0874 98.556 34.8089 99.6018 37.804C100.537 40.4838 100.851 43.2723 100.837 46.1192C100.804 52.9502 99.0996 59.3366 95.9501 65.3703C94.5576 68.0405 92.8445 70.5106 90.699 72.5871C88.7601 74.4649 86.6089 76.1526 83.7473 76.5501C82.8498 76.6745 82.0189 76.6933 81.1334 76.4693C79.3441 76.0161 78.5476 76.4023 77.5734 78.0184C72.7982 74.2763 71.2492 68.9984 70.9557 63.3181C70.4543 53.645 73.0078 44.755 78.5097 36.7532C80.1257 34.405 82.0691 32.3488 84.3918 30.6804C86.3568 29.27 88.4795 28.2273 90.9413 28.0171C91.2118 27.9946 91.4739 27.8703 91.7387 27.7927Z" fill="#0061FF"/>
<path d="M104.148 34.2071C104.87 33.7563 105.42 34.2419 105.973 34.5641C108.291 35.9111 109.356 38.1894 110.211 40.5494C111.062 42.8976 111.379 45.3443 111.53 47.8652C111.882 53.7465 110.582 59.2986 108.476 64.6797C106.573 69.5436 103.727 73.8391 99.614 77.1608C97.479 78.8854 95.0612 79.9152 92.2219 79.5274C91.9589 79.4916 91.6341 79.57 91.4956 79.2559C91.3457 78.9183 91.63 78.7627 91.8427 78.5992C97.3426 74.3651 100.806 68.7133 103.211 62.3144C104.265 59.5088 105.186 56.6461 105.612 53.6906C106.545 47.2188 106.679 40.7695 104.149 34.5424C104.112 34.45 104.147 34.3272 104.149 34.2038L104.148 34.2071Z" fill="#0061FF"/>
<path d="M177.091 63.8433C176.994 67.6506 175.954 71.1544 173.714 74.2679C172.928 75.3586 172 76.3075 170.832 76.9912C168.254 78.5021 165.816 77.8317 164.342 75.2335C163.528 73.7993 163.174 72.2167 163.124 70.6107C162.982 66.0213 164.215 61.8488 167.17 58.26C167.884 57.3928 168.743 56.6907 169.736 56.1754C172.03 54.9897 174.269 55.5884 175.65 57.778C176.816 59.6258 177.121 61.6954 177.089 63.8417L177.091 63.8433Z" fill="#0D47A1"/>
<path d="M215.8 73.8994C215.757 77.6016 214.803 80.8052 212.965 83.7369C212.073 85.1594 210.971 86.4035 209.496 87.259C206.992 88.7116 204.563 88.0645 203.111 85.568C202.164 83.9387 201.815 82.1276 201.815 80.2949C201.815 76.1991 202.904 72.4118 205.397 69.0982C206.239 67.9792 207.243 67.0303 208.509 66.3932C210.714 65.2859 212.785 65.7829 214.213 67.7874C215.136 69.0848 215.547 70.5774 215.712 72.14C215.782 72.8004 215.78 73.4691 215.799 73.8994H215.8Z" fill="#0D47A1"/>
<path d="M180.68 93.431C180.474 94.5917 180.874 95.569 181.901 96.2527C182.9 96.9181 183.964 97.0165 185.06 96.4812C185.805 96.1177 186.172 95.4773 186.489 94.7302C187.174 93.1109 188.53 92.4922 189.954 93.0408C191.465 93.6228 192.036 95.0253 191.46 96.7414C190.113 100.76 185.778 103.007 181.536 101.884C177.19 100.734 174.527 96.623 175.384 92.3871C175.714 90.7561 176.933 89.8372 178.484 90.0507C180.04 90.2658 180.784 91.3898 180.679 93.431H180.68Z" fill="#0D47A1"/>
<defs>
<linearGradient id="paint0_linear_206_2229" x1="263.312" y1="62.5677" x2="4.66037" y2="120.823" gradientUnits="userSpaceOnUse">
<stop stop-color="#0061FF"/>
<stop offset="1" stop-color="white" stop-opacity="0"/>
</linearGradient>
</defs>
</svg>
