<svg width="67" height="40" viewBox="0 0 67 40" fill="none" xmlns="http://www.w3.org/2000/svg">
<path d="M30.941 8.37329C29.2135 7.7392 27.3495 7.38868 25.4014 7.38868C17.1159 7.38868 10.2955 13.6478 9.40304 21.6951C9.3963 21.6951 9.39091 21.6942 9.38417 21.6942C4.44491 21.6942 0.439941 25.6991 0.439941 30.6384C0.439941 35.5777 4.44491 39.5827 9.38417 39.5827H25.2701V39.5813H47.0692C57.8716 39.5813 66.6289 30.771 66.6289 19.9033C66.6289 9.0357 57.8721 0.225372 47.0696 0.225372C39.576 0.225372 34.6148 3.6021 30.941 8.37329Z" fill="url(#paint0_linear_219_2164)" fill-opacity="0.6"/>
<ellipse cx="46.0907" cy="20" rx="20.909" ry="20" fill="#FF6B35"/>
<path d="M43.4364 8.69777C44.4522 8.69485 45.4113 8.98623 46.3784 9.24333C50.0821 10.2283 53.7951 11.1781 57.4901 12.1948C60.4726 13.0158 62.3194 14.9919 63.0458 18.0002C63.3215 19.1423 63.2819 20.2987 62.989 21.4349C62.5164 23.2668 62.017 25.092 61.5364 26.9218C60.712 30.0597 57.929 32.2549 54.8806 32.527C53.9803 32.6073 53.1017 32.5341 52.2373 32.3067C48.1552 31.2328 44.0747 30.1517 39.9963 29.0627C37.0322 28.2713 34.7969 25.7174 34.4114 22.697C34.2829 21.692 34.3484 20.6975 34.61 19.7155C35.0722 17.9814 35.5044 16.239 35.99 14.5116C36.9033 11.2646 39.0609 9.37794 42.3559 8.78013C42.7092 8.71617 43.0759 8.72328 43.436 8.69736L43.4364 8.69777Z" fill="white"/>
<path d="M28.588 7.65061C28.7563 7.80739 28.9837 7.72419 29.182 7.80188C30.0124 8.12853 30.6262 8.68911 31.0583 9.45406C31.6116 10.4335 31.8972 11.4919 31.9179 12.6158C31.9231 12.8869 32.0144 13.1418 31.998 13.4166C31.8892 15.2365 31.5284 16.9905 30.7095 18.6362C30.3281 19.4024 29.9057 20.1437 29.3491 20.793C28.6011 21.6645 27.7517 22.4136 26.6209 22.76C25.9647 22.961 25.3029 22.9498 24.6412 22.7822C24.3358 22.8539 24.2201 23.0381 24.234 23.357C24.2731 24.2525 24.0746 25.1379 24.1029 26.0359C24.1215 26.6268 24.1241 26.6628 24.6841 26.8917C24.9878 27.016 25.2967 27.1278 25.598 27.2579C25.7641 27.3297 25.9256 27.4045 26.0256 27.5666C28.1132 28.4063 30.2017 29.2447 32.288 30.088C32.4188 30.1408 32.5296 30.1573 32.6722 30.1187C33.6381 29.8573 34.5657 30.0048 35.459 30.4196C36.1739 30.7516 36.8167 31.1783 37.2332 31.8751C37.5315 32.3742 37.5293 32.8366 37.1999 33.209C36.951 33.4905 36.5997 33.5965 36.2403 33.644C34.9869 33.8096 33.899 33.3918 32.8943 32.6804C32.5587 32.4428 32.2765 32.1512 32.0902 31.7941C31.9653 31.5549 31.7834 31.4365 31.5605 31.3468C30.3697 30.868 29.1776 30.3923 27.9854 29.9171C27.737 29.818 27.5056 29.671 27.2295 29.6505C27.064 29.514 26.8586 29.4596 26.6661 29.3815C25.5165 28.9142 24.3636 28.4539 23.2131 27.9893C22.5449 27.7195 22.4787 27.6124 22.5095 26.8763C22.5685 25.4547 22.6293 24.0336 22.6865 22.612C22.7019 22.232 22.6969 22.2306 22.339 22.127C22.1811 22.0814 22.0193 22.0479 21.8628 21.9969C21.3902 21.843 21.2278 21.534 21.3454 21.0243C21.4142 20.6195 21.624 20.3932 22.0425 20.472C23.6114 20.7688 24.5968 19.8601 25.394 18.7705C27.1262 16.4019 27.8319 13.7419 27.3302 10.8108C27.2329 10.2435 26.9942 9.72919 26.6858 9.24528C26.4335 8.84943 26.0577 8.62335 25.6441 8.42814C25.1328 8.18646 25.0168 7.93296 25.1625 7.49028C25.3626 6.96934 25.631 6.81712 26.1515 6.96006C26.966 7.18354 27.7767 7.42044 28.5893 7.65153L28.588 7.65061Z" fill="#E9EEF9"/>
<path d="M25.1609 7.48938C25.1209 7.92382 25.3217 8.19032 25.7257 8.33415C26.6036 8.6467 26.998 9.38005 27.2798 10.1872C27.5319 10.9093 27.6164 11.6607 27.6126 12.4279C27.6037 14.2687 27.1445 15.9896 26.2958 17.6156C25.9205 18.3351 25.4589 19.0007 24.8808 19.5603C24.3583 20.0663 23.7786 20.5211 23.0075 20.6282C22.7656 20.6617 22.5417 20.6668 22.3031 20.6065C21.8209 20.4843 21.6063 20.5884 21.3437 21.0239C20.057 20.0155 19.6396 18.5932 19.5605 17.0625C19.4253 14.4559 20.1135 12.0603 21.5961 9.90401C22.0315 9.27123 22.5552 8.71713 23.1811 8.26755C23.7106 7.88747 24.2827 7.60649 24.946 7.54986C25.0189 7.5438 25.0896 7.51029 25.1609 7.48938Z" fill="#FF6B35"/>
<path d="M28.5049 9.21786C28.6996 9.09639 28.8477 9.22724 28.9969 9.31406C29.6214 9.67705 29.9084 10.291 30.139 10.9269C30.3682 11.5597 30.4537 12.2191 30.4943 12.8983C30.5892 14.4832 30.2387 15.9794 29.6714 17.4294C29.1584 18.7401 28.3916 19.8976 27.2832 20.7927C26.7079 21.2575 26.0564 21.535 25.2913 21.4305C25.2204 21.4208 25.1329 21.442 25.0955 21.3573C25.0552 21.2664 25.1318 21.2244 25.1891 21.1804C26.6711 20.0394 27.6045 18.5164 28.2525 16.792C28.5367 16.036 28.7847 15.2646 28.8995 14.4681C29.151 12.7242 29.187 10.9863 28.5053 9.3082C28.4953 9.28333 28.5048 9.25022 28.5054 9.21696L28.5049 9.21786Z" fill="#FF6B35"/>
<path d="M48.1614 17.2042C48.1353 18.2301 47.8549 19.1743 47.2513 20.0133C47.0397 20.3072 46.7894 20.5629 46.4748 20.7472C45.78 21.1543 45.123 20.9737 44.7258 20.2735C44.5065 19.887 44.4112 19.4606 44.3977 19.0278C44.3595 17.7911 44.6916 16.6667 45.4879 15.6996C45.6803 15.4659 45.9117 15.2767 46.1796 15.1379C46.7975 14.8183 47.401 14.9797 47.7731 15.5697C48.0872 16.0676 48.1695 16.6253 48.1609 17.2037L48.1614 17.2042Z" fill="#0D47A1"/>
<path d="M58.5923 19.9139C58.5806 20.9115 58.3236 21.7748 57.8284 22.5648C57.5879 22.9482 57.2909 23.2834 56.8936 23.5139C56.2186 23.9054 55.5643 23.731 55.1729 23.0583C54.9177 22.6192 54.8237 22.1312 54.8237 21.6373C54.8237 20.5336 55.1172 19.513 55.789 18.6201C56.016 18.3185 56.2865 18.0628 56.6276 17.8912C57.2217 17.5928 57.7798 17.7267 58.1645 18.2668C58.4135 18.6165 58.524 19.0187 58.5685 19.4398C58.5874 19.6177 58.5869 19.7979 58.5919 19.9139H58.5923Z" fill="#0D47A1"/>
<path d="M49.1286 25.1773C49.0729 25.49 49.1807 25.7534 49.4575 25.9376C49.7267 26.1169 50.0134 26.1435 50.3087 25.9992C50.5096 25.9012 50.6084 25.7287 50.6938 25.5273C50.8785 25.091 51.2439 24.9243 51.6277 25.0721C52.0348 25.2289 52.1885 25.6069 52.0334 26.0693C51.6703 27.1523 50.5024 27.7577 49.3591 27.4552C48.188 27.1452 47.4703 26.0374 47.7013 24.8959C47.7903 24.4564 48.1188 24.2088 48.5367 24.2663C48.956 24.3243 49.1565 24.6272 49.1281 25.1773H49.1286Z" fill="#0D47A1"/>
<defs>
<linearGradient id="paint0_linear_219_2164" x1="29.8125" y1="26.1389" x2="-6.02743" y2="36.6483" gradientUnits="userSpaceOnUse">
<stop stop-color="#FF6B35"/>
<stop offset="1" stop-color="#FF6B35" stop-opacity="0"/>
</linearGradient>
</defs>
</svg>
