<svg width="24" height="24" viewBox="0 0 24 24" fill="none" xmlns="http://www.w3.org/2000/svg">
<g opacity="0.7">
<path d="M3.00488 3.125H21.0049C21.2369 3.125 21.4599 3.21677 21.624 3.38086C21.7881 3.54495 21.8799 3.76794 21.8799 4V9.38086C21.2292 9.41189 20.6111 9.68085 20.1484 10.1436C19.6562 10.6358 19.3799 11.3038 19.3799 12C19.3799 12.6962 19.6562 13.3642 20.1484 13.8564C20.6111 14.3191 21.2293 14.5871 21.8799 14.6182V20C21.8799 20.2321 21.7881 20.455 21.624 20.6191C21.4599 20.7832 21.2369 20.875 21.0049 20.875H3.00488C2.77282 20.875 2.54984 20.7832 2.38574 20.6191C2.22165 20.455 2.12988 20.2321 2.12988 20V14.6182C2.78051 14.5871 3.39863 14.3191 3.86133 13.8564C4.35361 13.3642 4.62988 12.6962 4.62988 12C4.62988 11.3038 4.35361 10.6358 3.86133 10.1436C3.39862 9.68085 2.78053 9.41189 2.12988 9.38086V4C2.12988 3.76794 2.22165 3.54495 2.38574 3.38086C2.52923 3.23737 2.71781 3.14887 2.91797 3.12891L3.00488 3.125ZM20.1299 15.9541L20.0615 15.9189L19.9082 15.8398H19.9092C19.2501 15.4803 18.6943 14.9576 18.2959 14.3213C17.9473 13.7644 17.7291 13.1369 17.6562 12.4863L17.6338 12.2061L17.6309 12C17.6307 11.2141 17.8422 10.4425 18.2432 9.7666C18.6441 9.09075 19.2194 8.53475 19.9092 8.1582L20.0635 8.0791L20.1309 8.04395V7.96777L20.1299 5V4.875H3.87988V8.04395L3.94824 8.0791L4.10059 8.15723V8.1582C4.75977 8.51804 5.3156 9.04103 5.71387 9.67773C6.06237 10.235 6.28007 10.8628 6.35254 11.5137L6.375 11.7939L6.37988 12.0029C6.37938 12.7875 6.16793 13.5576 5.76758 14.2324C5.36658 14.9082 4.7903 15.4634 4.10059 15.8398L3.94824 15.9189L3.87988 15.9541V19.125H20.1299V15.9541Z" fill="#CED4FF" stroke="#0B2572" stroke-width="0.25"/>
</g>
</svg>
