<svg width="19" height="19" viewBox="0 0 19 19" fill="none" xmlns="http://www.w3.org/2000/svg">
<g opacity="0.7" clip-path="url(#clip0_209_2519)">
<path d="M17.4541 12.8595C16.9047 14.1589 16.0453 15.3038 14.9512 16.1943C13.857 17.0848 12.5614 17.6937 11.1776 17.9678C9.79372 18.2418 8.36381 18.1727 7.01285 17.7665C5.66188 17.3603 4.43099 16.6294 3.42778 15.6376C2.42458 14.6457 1.67961 13.4233 1.258 12.077C0.836387 10.7308 0.750978 9.30177 1.00924 7.9149C1.2675 6.52803 1.86156 5.22553 2.73949 4.12129C3.61742 3.01704 4.75248 2.14467 6.04545 1.58044" stroke="#CED4FF" stroke-width="1.5" stroke-linecap="round" stroke-linejoin="round"/>
<path d="M18.1364 9.50001C18.1364 8.36587 17.913 7.24283 17.479 6.19502C17.0449 5.14721 16.4088 4.19514 15.6068 3.39318C14.8049 2.59122 13.8528 1.95507 12.805 1.52105C11.7572 1.08703 10.6341 0.863647 9.5 0.863647V9.50001H18.1364Z" stroke="#CED4FF" stroke-width="1.5" stroke-linecap="round" stroke-linejoin="round"/>
</g>
<defs>
<clipPath id="clip0_209_2519">
<rect width="19" height="19" fill="white"/>
</clipPath>
</defs>
</svg>
