<svg width="21" height="22" viewBox="0 0 21 22" fill="none" xmlns="http://www.w3.org/2000/svg">
<g opacity="0.7" clip-path="url(#clip0_209_2548)">
<path d="M10.5 13.75C11.9497 13.75 13.125 12.5188 13.125 11C13.125 9.48122 11.9497 8.25 10.5 8.25C9.05025 8.25 7.875 9.48122 7.875 11C7.875 12.5188 9.05025 13.75 10.5 13.75Z" stroke="#CED4FF" stroke-width="1.5" stroke-linecap="round" stroke-linejoin="round"/>
<path d="M16.975 13.75C16.8585 14.0265 16.8238 14.3332 16.8752 14.6306C16.9267 14.9279 17.062 15.2023 17.2637 15.4184L17.3163 15.4734C17.479 15.6436 17.608 15.8458 17.6961 16.0684C17.7842 16.2909 17.8295 16.5295 17.8295 16.7704C17.8295 17.0114 17.7842 17.2499 17.6961 17.4725C17.608 17.6951 17.479 17.8973 17.3163 18.0675C17.1537 18.238 16.9607 18.3732 16.7483 18.4655C16.5358 18.5577 16.3081 18.6052 16.0781 18.6052C15.8481 18.6052 15.6204 18.5577 15.408 18.4655C15.1955 18.3732 15.0025 18.238 14.84 18.0675L14.7875 18.0125C14.5813 17.8012 14.3194 17.6594 14.0355 17.6055C13.7517 17.5516 13.4589 17.588 13.195 17.71C12.9362 17.8262 12.7155 18.0192 12.56 18.2651C12.4046 18.511 12.3211 18.7992 12.32 19.0942V19.25C12.32 19.7362 12.1356 20.2026 11.8074 20.5464C11.4792 20.8902 11.0341 21.0834 10.57 21.0834C10.1059 21.0834 9.66075 20.8902 9.33256 20.5464C9.00437 20.2026 8.82 19.7362 8.82 19.25V19.1675C8.81323 18.8641 8.71948 18.5698 8.55095 18.323C8.38241 18.0761 8.14689 17.8881 7.875 17.7834C7.61109 17.6613 7.31833 17.6249 7.03449 17.6788C6.75064 17.7328 6.48872 17.8745 6.2825 18.0859L6.23 18.1409C6.06747 18.3113 5.87447 18.4465 5.66202 18.5388C5.44957 18.6311 5.22185 18.6785 4.99187 18.6785C4.7619 18.6785 4.53418 18.6311 4.32173 18.5388C4.10928 18.4465 3.91628 18.3113 3.75375 18.1409C3.59104 17.9706 3.46196 17.7684 3.3739 17.5458C3.28583 17.3233 3.2405 17.0847 3.2405 16.8438C3.2405 16.6028 3.28583 16.3643 3.3739 16.1417C3.46196 15.9191 3.59104 15.717 3.75375 15.5467L3.80625 15.4917C4.00797 15.2756 4.14329 15.0013 4.19475 14.7039C4.24622 14.4065 4.21148 14.0998 4.095 13.8234C3.98408 13.5522 3.79991 13.321 3.56516 13.1581C3.3304 12.9953 3.05531 12.9079 2.77375 12.9067H2.625C2.16087 12.9067 1.71575 12.7135 1.38756 12.3697C1.05937 12.0259 0.875 11.5596 0.875 11.0734C0.875 10.5871 1.05937 10.1208 1.38756 9.77699C1.71575 9.43317 2.16087 9.24002 2.625 9.24002H2.70375C2.99337 9.23292 3.27425 9.13471 3.50989 8.95815C3.74552 8.7816 3.925 8.53486 4.025 8.25002C4.14148 7.97354 4.17622 7.66684 4.12475 7.36948C4.07329 7.07212 3.93797 6.79773 3.73625 6.58169L3.68375 6.52669C3.52104 6.35642 3.39196 6.15422 3.3039 5.93166C3.21583 5.7091 3.1705 5.47053 3.1705 5.2296C3.1705 4.98868 3.21583 4.75011 3.3039 4.52755C3.39196 4.30498 3.52104 4.10279 3.68375 3.93252C3.84628 3.76206 4.03928 3.62684 4.25173 3.53458C4.46418 3.44232 4.6919 3.39483 4.92188 3.39483C5.15185 3.39483 5.37957 3.44232 5.59202 3.53458C5.80447 3.62684 5.99747 3.76206 6.16 3.93252L6.2125 3.98752C6.41872 4.19885 6.68064 4.34061 6.96448 4.39452C7.24833 4.44844 7.54109 4.41204 7.805 4.29002H7.875C8.1338 4.17382 8.35451 3.98088 8.50998 3.73495C8.66545 3.48901 8.74888 3.20082 8.75 2.90585V2.75002C8.75 2.26379 8.93437 1.79747 9.26256 1.45366C9.59075 1.10984 10.0359 0.916687 10.5 0.916687C10.9641 0.916687 11.4092 1.10984 11.7374 1.45366C12.0656 1.79747 12.25 2.26379 12.25 2.75002V2.83252C12.2511 3.12749 12.3346 3.41568 12.49 3.66161C12.6455 3.90755 12.8662 4.10049 13.125 4.21669C13.3889 4.33871 13.6817 4.37511 13.9655 4.32119C14.2494 4.26727 14.5113 4.12551 14.7175 3.91419L14.77 3.85919C14.9325 3.68873 15.1255 3.55351 15.338 3.46124C15.5504 3.36898 15.7781 3.32149 16.0081 3.32149C16.2381 3.32149 16.4658 3.36898 16.6783 3.46124C16.8907 3.55351 17.0837 3.68873 17.2462 3.85919C17.409 4.02945 17.538 4.23165 17.6261 4.45421C17.7142 4.67678 17.7595 4.91534 17.7595 5.15627C17.7595 5.3972 17.7142 5.63576 17.6261 5.85833C17.538 6.08089 17.409 6.28309 17.2462 6.45335L17.1937 6.50835C16.992 6.72439 16.8567 6.99878 16.8052 7.29615C16.7538 7.59351 16.7885 7.90021 16.905 8.17669V8.25002C17.0159 8.52114 17.2001 8.75237 17.4348 8.91524C17.6696 9.07811 17.9447 9.16551 18.2262 9.16669H18.375C18.8391 9.16669 19.2842 9.35984 19.6124 9.70366C19.9406 10.0475 20.125 10.5138 20.125 11C20.125 11.4863 19.9406 11.9526 19.6124 12.2964C19.2842 12.6402 18.8391 12.8334 18.375 12.8334H18.2962C18.0147 12.8345 17.7396 12.9219 17.5048 13.0848C17.2701 13.2477 17.0859 13.4789 16.975 13.75Z" stroke="#CED4FF" stroke-width="1.5" stroke-linecap="round" stroke-linejoin="round"/>
</g>
<defs>
<clipPath id="clip0_209_2548">
<rect width="21" height="22" fill="white"/>
</clipPath>
</defs>
</svg>
