<svg width="49" height="29" viewBox="0 0 49 29" fill="none" xmlns="http://www.w3.org/2000/svg">
<mask id="mask0_209_2310" style="mask-type:luminance" maskUnits="userSpaceOnUse" x="0" y="0" width="49" height="29">
<path d="M48.3735 0H0V29H48.3735V0Z" fill="white"/>
</mask>
<g mask="url(#mask0_209_2310)">
<path d="M15.8731 17.9187C15.9734 17.6541 16.0736 17.3894 16.1738 17.1248C17.6867 13.1263 19.2473 9.00265 21.3662 5.69703C20.3688 5.42276 19.3236 5.2736 18.2403 5.2736C13.1528 5.2736 8.82424 8.53111 7.18252 13.0878C10.7953 13.2562 13.4583 15.4359 15.8731 17.9235M6.54779 15.816H6.53824C2.92551 15.816 0 18.7656 0 22.408C0 26.0504 2.92551 29 6.53824 29H8.2945C10.1367 29 11.1437 28.0617 12.709 25.2661C13.4487 23.9477 14.1264 22.3936 14.7993 20.7095C12.3272 18.0727 9.8885 15.8256 6.55256 15.816M34.9629 0C30.1189 0 26.6923 2.73785 24.1676 6.48133C19.6863 13.1215 17.6103 24.3182 13.506 29H34.08C41.9736 29 48.3735 22.509 48.3735 14.5024C48.3735 6.49577 41.9784 0 34.9629 0Z" fill="white"/>
</g>
</svg>
