<svg width="220" height="29" viewBox="0 0 220 29" fill="none" xmlns="http://www.w3.org/2000/svg">
<g clip-path="url(#clip0_209_2373)">
<mask id="mask0_209_2373" style="mask-type:luminance" maskUnits="userSpaceOnUse" x="55" y="5" width="165" height="20">
<path d="M220 5.45647H55.3937V24.9101H220V5.45647Z" fill="white"/>
</mask>
<g mask="url(#mask0_209_2373)">
<path d="M92.1796 17.3076V24.5876H94.9715V17.0141C94.9715 15.0461 94.5038 13.5689 93.5731 12.5777C92.6425 11.5865 91.3587 11.0909 89.7265 11.0909C88.7959 11.0909 87.9273 11.3122 87.1303 11.7549C86.3286 12.1976 85.6938 12.799 85.2214 13.5641C84.4101 11.9185 82.9735 11.0909 80.8975 11.0909C79.986 11.0909 79.1795 11.2833 78.4875 11.6779C77.7907 12.0676 77.2371 12.5969 76.8123 13.2706L76.5737 11.4133H74.0968V24.5925H76.8887V17.7887C76.8887 16.4078 77.1989 15.3444 77.8241 14.5986C78.4493 13.8528 79.2415 13.4823 80.2103 13.4823C82.1622 13.4823 83.1358 14.7574 83.1358 17.3076V24.5876H85.9325V17.7839C85.9325 16.403 86.2427 15.3396 86.8679 14.5938C87.493 13.848 88.2948 13.4775 89.2779 13.4775C91.2108 13.4775 92.1796 14.7526 92.1796 17.3028" fill="white"/>
<path d="M107.824 12.5392C106.821 11.572 105.409 11.0909 103.581 11.0909C102.56 11.0909 101.624 11.2737 100.775 11.6346C99.9205 12.0003 99.219 12.5199 98.6653 13.2032C98.1117 13.8865 97.792 14.7044 97.7013 15.662H100.493C100.617 14.9162 100.961 14.358 101.534 13.9731C102.106 13.5929 102.774 13.4005 103.548 13.4005C104.426 13.4005 105.142 13.6555 105.695 14.1703C106.249 14.6852 106.526 15.4551 106.526 16.4848V16.7254H103.099C101.271 16.7254 99.868 17.0959 98.8801 17.8417C97.897 18.5875 97.4054 19.5931 97.4054 20.873C97.4054 21.5996 97.582 22.2684 97.9304 22.8795C98.2836 23.4906 98.8181 23.9814 99.5387 24.3567C100.259 24.7272 101.171 24.9148 102.278 24.9148C103.385 24.9148 104.345 24.6646 105.046 24.169C105.748 23.6734 106.287 23.0623 106.654 22.3358L106.893 24.5924H109.317V16.4848C109.317 14.8199 108.816 13.5063 107.814 12.5392M105.967 20.6324C105.676 21.2339 105.275 21.7199 104.755 22.0808C104.235 22.4464 103.6 22.6245 102.841 22.6245C102.082 22.6245 101.457 22.4513 101.009 22.1048C100.56 21.7584 100.336 21.2868 100.336 20.6806C100.336 20.0743 100.57 19.6075 101.032 19.2178C101.5 18.8281 102.283 18.6356 103.39 18.6356H106.502C106.43 19.3622 106.254 20.0262 105.962 20.6276" fill="white"/>
<path d="M115.159 18.2651C115.159 17.1873 115.34 16.3404 115.698 15.7293C116.061 15.1183 116.543 14.6852 117.149 14.4254C117.755 14.1703 118.442 14.0404 119.216 14.0404H119.979V11.0909C118.819 11.0909 117.831 11.3459 117.015 11.8463C116.199 12.3515 115.56 13.0396 115.106 13.9057L114.868 11.4084H112.362V24.5876H115.154V18.2651H115.159Z" fill="white"/>
<path d="M123.759 20.2861C123.759 21.898 124.136 23.0191 124.895 23.6494C125.649 24.2798 126.67 24.5925 127.954 24.5925H130.116V22.2011H128.612C127.858 22.2011 127.324 22.0616 127.018 21.7873C126.713 21.5131 126.556 21.0126 126.556 20.2861V13.7759H130.245V11.4133H126.556V8.06441H124.102L123.759 11.4133H121.516V13.7759H123.759V20.2861Z" fill="white"/>
<path d="M164.315 14.3724C163.728 13.3379 162.936 12.5296 161.943 11.957C160.95 11.3796 159.829 11.0909 158.583 11.0909C157.338 11.0909 156.235 11.3796 155.238 11.957C154.236 12.5344 153.439 13.3379 152.852 14.3724C152.265 15.407 151.969 16.6195 151.969 18.0004C151.969 19.3814 152.26 20.5891 152.837 21.6285C153.42 22.663 154.202 23.4713 155.195 24.0439C156.188 24.6213 157.309 24.91 158.555 24.91C159.8 24.91 160.927 24.6213 161.929 24.0439C162.931 23.4713 163.728 22.663 164.315 21.6285C164.902 20.5939 165.198 19.3814 165.198 18.0004C165.198 16.6195 164.902 15.4118 164.315 14.3724ZM161.795 20.4833C161.442 21.1473 160.984 21.6477 160.411 21.9845C159.838 22.3213 159.223 22.4897 158.555 22.4897C157.887 22.4897 157.271 22.3213 156.713 21.9845C156.149 21.6477 155.691 21.1473 155.343 20.4833C154.99 19.8193 154.818 18.9917 154.818 18.0004C154.818 17.0092 154.994 16.1816 155.343 15.5176C155.696 14.8536 156.154 14.3532 156.727 14.0164C157.3 13.6796 157.915 13.5111 158.583 13.5111C159.251 13.5111 159.872 13.6796 160.44 14.0164C161.012 14.3532 161.466 14.8536 161.809 15.5176C162.153 16.1816 162.325 17.0092 162.325 18.0004C162.325 18.9917 162.148 19.8193 161.8 20.4833" fill="white"/>
<path d="M174.943 11.0909C173.922 11.0909 173.025 11.3267 172.242 11.7934C171.459 12.2601 170.868 12.9049 170.462 13.7181L170.252 11.4036H167.775V24.5828H170.567V17.7791C170.567 16.3982 170.906 15.3348 171.584 14.589C172.261 13.8432 173.115 13.4727 174.156 13.4727C176.227 13.4727 177.268 14.7478 177.268 17.298V24.578H180.036V17.0044C180.036 15.0365 179.582 13.5593 178.68 12.5681C177.773 11.5769 176.533 11.0813 174.948 11.0813" fill="white"/>
<path d="M186.793 8.0596H184.34L183.997 11.4085H181.754V13.7711H183.997V20.2813C183.997 21.8932 184.374 23.0143 185.128 23.6446C185.882 24.275 186.903 24.5877 188.187 24.5877H190.349V22.1963H188.845C188.091 22.1963 187.557 22.0616 187.251 21.7873C186.941 21.5131 186.789 21.0126 186.789 20.2861V13.7759H190.478V11.4133H186.789V8.06441L186.793 8.0596Z" fill="white"/>
<path d="M195.417 13.9105L195.179 11.4133H192.673V24.5924H195.465V18.2699C195.465 17.1873 195.646 16.3452 196.004 15.7341C196.362 15.1231 196.849 14.69 197.455 14.4302C198.061 14.1752 198.748 14.0452 199.521 14.0452H200.285V11.0957C199.125 11.0957 198.137 11.3459 197.321 11.8511C196.505 12.3563 195.866 13.0444 195.412 13.9105" fill="white"/>
<path d="M213.958 14.3724C213.371 13.3379 212.579 12.5296 211.586 11.957C210.594 11.3796 209.472 11.0909 208.226 11.0909C206.981 11.0909 205.878 11.3796 204.881 11.957C203.879 12.5344 203.082 13.3379 202.495 14.3724C201.908 15.407 201.612 16.6195 201.612 18.0004C201.612 19.3814 201.903 20.5891 202.48 21.6285C203.063 22.663 203.845 23.4713 204.838 24.0439C205.831 24.6213 206.952 24.91 208.198 24.91C209.443 24.91 210.57 24.6213 211.572 24.0439C212.574 23.4713 213.371 22.663 213.958 21.6285C214.545 20.5939 214.841 19.3814 214.841 18.0004C214.841 16.6195 214.545 15.4118 213.958 14.3724ZM211.443 20.4833C211.09 21.1473 210.632 21.6477 210.059 21.9845C209.486 22.3213 208.871 22.4897 208.203 22.4897C207.534 22.4897 206.919 22.3213 206.36 21.9845C205.797 21.6477 205.339 21.1473 204.991 20.4833C204.638 19.8193 204.466 18.9917 204.466 18.0004C204.466 17.0092 204.642 16.1816 204.991 15.5176C205.344 14.8536 205.802 14.3532 206.375 14.0164C206.947 13.6796 207.563 13.5111 208.231 13.5111C208.899 13.5111 209.52 13.6796 210.088 14.0164C210.66 14.3532 211.114 14.8536 211.457 15.5176C211.801 16.1816 211.973 17.0092 211.973 18.0004C211.973 18.9917 211.796 19.8193 211.448 20.4833" fill="white"/>
<path d="M220 5.45647H217.208V24.5877H220V5.45647Z" fill="white"/>
<path d="M68.9999 15.2337C68.1361 14.8247 67.1769 14.5216 66.0028 14.1896C65.2536 13.9923 64.5616 13.8047 63.9173 13.6266C63.4353 13.4967 62.9819 13.3716 62.5524 13.2561L62.4808 13.2369C61.5549 12.9915 60.1518 12.621 59.6555 12.2505C59.1735 11.8896 58.9348 11.3844 58.9348 10.7011C58.9348 9.88796 59.2832 9.26245 59.9991 8.80053C60.7436 8.31455 62.3615 8.09321 63.545 8.09321C64.5186 8.09321 65.9599 8.19425 67.2198 9.05073C68.0168 9.59445 68.2363 10.1285 68.4081 11.0572L68.4511 11.2882H71.0616L71.0187 10.9658C70.6894 8.52145 68.5561 5.66812 63.6452 5.66812C62.1372 5.66812 60.8104 5.88946 59.7032 6.32251C58.5817 6.76037 57.6988 7.38108 57.0831 8.16538C56.4579 8.96412 56.1525 9.88796 56.1764 10.908C56.1764 12.1446 56.6393 13.1599 57.5556 13.925C58.4719 14.69 59.8225 15.1664 61.574 15.6379C62.4092 15.8689 63.378 16.1287 64.2848 16.3452C65.1152 16.5425 66.3512 16.8986 67.005 17.168C67.6302 17.4279 68.1266 17.7599 68.4893 18.1641C68.8377 18.5538 69.0047 19.059 69.0047 19.7134C69.0047 20.4977 68.6277 21.1377 67.8545 21.6718C67.1244 22.1722 65.5924 22.4994 63.9459 22.5042C62.7814 22.5042 61.1445 22.331 60.4048 22.0038C59.6603 21.6766 59.0876 21.2291 58.7058 20.6854C58.3001 20.108 58.1331 19.8674 58.1331 19.0831V18.7992H55.3937V19.0831C55.3937 19.8914 55.7278 21.128 56.4723 22.0711C57.1786 22.9661 58.1856 23.6734 59.4694 24.169C60.7341 24.6598 62.2374 24.9052 63.9364 24.9052H63.9507C65.7022 24.9052 67.1816 24.6502 68.3556 24.1594C69.5392 23.659 70.4412 22.9998 71.0378 22.1962C71.6391 21.3831 71.9445 20.5073 71.9398 19.5883C71.9398 18.5153 71.6725 17.6155 71.1475 16.9178C70.6321 16.2298 69.9067 15.6668 68.9999 15.2337Z" fill="white"/>
<path d="M146.743 19.4536C146.461 20.2908 145.979 20.9693 145.287 21.4841C144.476 22.0856 143.397 22.3887 142.047 22.3887C140.2 22.3887 138.744 21.7584 137.671 20.5025C136.597 19.2467 136.062 17.5193 136.062 15.3203C136.062 13.1214 136.597 11.3651 137.671 10.0997C138.74 8.8342 140.2 8.19906 142.047 8.19906C143.397 8.19906 144.481 8.51663 145.287 9.15659C145.979 9.70512 146.466 10.4172 146.748 11.293H149.878C149.463 9.59445 148.633 8.24718 147.373 7.27041C146.003 6.20703 144.237 5.67774 142.075 5.67774C140.248 5.67774 138.673 6.08673 137.346 6.89991C136.019 7.71308 134.998 8.84383 134.277 10.2873C133.557 11.7308 133.194 13.4101 133.194 15.3203C133.194 17.2306 133.552 18.8858 134.277 20.3293C134.998 21.7728 136.019 22.8987 137.346 23.7023C138.673 24.5107 140.252 24.91 142.075 24.91C144.237 24.91 146.003 24.3856 147.373 23.3414C148.633 22.3839 149.463 21.0847 149.874 19.4488H146.743V19.4536Z" fill="white"/>
</g>
<mask id="mask1_209_2373" style="mask-type:luminance" maskUnits="userSpaceOnUse" x="0" y="0" width="49" height="29">
<path d="M48.3735 0H0V29H48.3735V0Z" fill="white"/>
</mask>
<g mask="url(#mask1_209_2373)">
<path d="M15.8731 17.9187C15.9734 17.6541 16.0736 17.3894 16.1738 17.1248C17.6867 13.1263 19.2473 9.00265 21.3662 5.69703C20.3688 5.42276 19.3236 5.2736 18.2403 5.2736C13.1528 5.2736 8.82424 8.53111 7.18252 13.0878C10.7953 13.2562 13.4583 15.4359 15.8731 17.9235M6.54779 15.816H6.53824C2.92551 15.816 0 18.7656 0 22.408C0 26.0504 2.92551 29 6.53824 29H8.2945C10.1367 29 11.1437 28.0617 12.709 25.2661C13.4487 23.9477 14.1264 22.3936 14.7993 20.7095C12.3272 18.0727 9.8885 15.8256 6.55256 15.816M34.9629 0C30.1189 0 26.6923 2.73785 24.1676 6.48133C19.6863 13.1215 17.6103 24.3182 13.506 29H34.08C41.9736 29 48.3735 22.509 48.3735 14.5024C48.3735 6.49577 41.9784 0 34.9629 0Z" fill="white"/>
</g>
</g>
<defs>
<clipPath id="clip0_209_2373">
<rect width="220" height="29" fill="white"/>
</clipPath>
</defs>
</svg>
