<svg width="18" height="18" viewBox="0 0 18 18" fill="none" xmlns="http://www.w3.org/2000/svg">
<g opacity="0.7" clip-path="url(#clip0_209_2538)">
<path d="M10.8857 4.54284C10.7287 4.70306 10.6407 4.91848 10.6407 5.14284C10.6407 5.3672 10.7287 5.58262 10.8857 5.74284L12.2571 7.11427C12.4174 7.27132 12.6328 7.35929 12.8571 7.35929C13.0815 7.35929 13.2969 7.27132 13.4572 7.11427L16.6886 3.88284C17.1196 4.83529 17.2501 5.89647 17.0627 6.92496C16.8753 7.95346 16.3789 8.90042 15.6397 9.63965C14.9004 10.3789 13.9535 10.8753 12.925 11.0627C11.8965 11.2501 10.8353 11.1196 9.88286 10.6886L3.96001 16.6114C3.61901 16.9524 3.15653 17.144 2.67429 17.144C2.19206 17.144 1.72957 16.9524 1.38858 16.6114C1.04759 16.2704 0.856018 15.8079 0.856018 15.3257C0.856018 14.8435 1.04759 14.381 1.38858 14.04L7.31144 8.11713C6.88043 7.16468 6.74993 6.1035 6.93733 5.075C7.12472 4.04651 7.62111 3.09954 8.36034 2.36032C9.09957 1.62109 10.0465 1.1247 11.075 0.937305C12.1035 0.74991 13.1647 0.88041 14.1171 1.31141L10.8943 4.53427L10.8857 4.54284Z" stroke="#CED4FF" stroke-width="1.5" stroke-linecap="round" stroke-linejoin="round"/>
</g>
<defs>
<clipPath id="clip0_209_2538">
<rect width="18" height="18" fill="white"/>
</clipPath>
</defs>
</svg>
